<svg aria-hidden="true" style="width:0;height:0;position:absolute" xmlns="http://www.w3.org/2000/svg" overflow="hidden"><symbol id="icon-logo-house" viewBox="0 0 33 26"><path fill-rule="evenodd" clip-rule="evenodd" d="M13.632.688 3.608 4.005c-1.302.431-1.742.685-2.175 1.051A3.355 3.355 0 0 0 .47 6.391C.259 6.917.156 7.415.156 8.788v14.978c0 .668.069.91.2 1.154.13.244.321.435.565.566.244.13.485.2 1.152.2H30.9c.667 0 .909-.07 1.152-.2a1.36 1.36 0 0 0 .566-.566c.13-.244.2-.486.2-1.154V8.755c0-1.364-.101-1.858-.31-2.381a3.353 3.353 0 0 0-.95-1.33c-.426-.366-.86-.622-2.15-1.063L19.884.72C18.543.26 18.08.14 17.546.06a5.354 5.354 0 0 0-1.568-.007c-.536.074-1 .189-2.346.634ZM2.65 23.19h8.268V10.56a1 1 0 0 1 1-1h9.138a1 1 0 0 1 1 1v12.63h8.269V8.755c0-.967-.036-1.214-.133-1.458a.862.862 0 0 0-.255-.358c-.2-.171-.421-.284-1.336-.597l-9.522-3.26c-1.14-.39-1.512-.494-1.9-.552a2.867 2.867 0 0 0-.858-.004c-.388.054-.761.153-1.905.532L4.39 6.375c-.923.305-1.146.417-1.349.588a.863.863 0 0 0-.259.359c-.099.246-.134.493-.134 1.466V23.19Z" fill="#fff"/></symbol><symbol id="icon-logo-text" viewBox="0 0 97 16"><path fill-rule="evenodd" clip-rule="evenodd" d="M.882 2.956c0-.283.13-.424.388-.424h8.492c.153 0 .261.043.326.128a.519.519 0 0 1 .097.322v1.555c0 .106-.037.2-.11.282-.074.083-.184.124-.33.124H3.48v2.684H8.31c.117-.011.211.014.281.075.07.062.106.167.106.314v1.598c0 .106-.03.2-.088.283-.059.082-.153.123-.282.123H3.481v3.215h6.493c.164 0 .273.035.325.106.053.07.08.18.08.327v1.607c0 .247-.13.37-.388.37h-8.72a.434.434 0 0 1-.274-.088c-.076-.058-.115-.153-.115-.282V2.955Zm18.262 9.75a.814.814 0 0 1 .25-.12.83.83 0 0 1 .173-.022c.1.006.185.059.255.159l.212.291.625.892c.03.041.053.084.07.128a.326.326 0 0 1 .027.12.37.37 0 0 1-.097.251c-.065.074-.15.149-.255.225-.5.365-1.038.66-1.617.883a5.244 5.244 0 0 1-1.907.336c-.523 0-1.03-.07-1.52-.208a5.815 5.815 0 0 1-2.541-1.483 5.877 5.877 0 0 1-.912-1.17 5.7 5.7 0 0 1-.797-2.932 5.723 5.723 0 0 1 1.709-4.102A5.817 5.817 0 0 1 15.36 4.47a5.57 5.57 0 0 1 1.52-.207c.652 0 1.268.1 1.85.3a5.55 5.55 0 0 1 1.55.812l-.009-.008c.083.082.163.154.243.216.079.062.119.157.119.287 0 .035-.002.077-.005.124a.252.252 0 0 1-.048.132l-.723 1.104c-.117.177-.246.265-.387.265-.1 0-.212-.05-.335-.15-.3-.253-.649-.46-1.048-.618-.4-.16-.81-.239-1.233-.239-.459 0-.889.096-1.291.287-.402.192-.756.45-1.062.777a3.687 3.687 0 0 0-.722 3.882c.176.43.416.803.718 1.121.303.318.656.57 1.062.755.405.185.836.278 1.295.278.499 0 .93-.087 1.294-.26a5.03 5.03 0 0 0 .996-.623Zm2.396-2.65a5.771 5.771 0 0 1 1.7-4.11 5.808 5.808 0 0 1 2.55-1.485 5.634 5.634 0 0 1 1.538-.207c.528 0 1.039.07 1.532.207a5.8 5.8 0 0 1 4.04 4.045c.137.498.206 1.014.206 1.55a5.724 5.724 0 0 1-.793 2.927 5.921 5.921 0 0 1-2.074 2.075c-.426.25-.885.445-1.379.583a5.651 5.651 0 0 1-1.532.208c-.535 0-1.047-.07-1.538-.208a5.901 5.901 0 0 1-1.378-.582 5.725 5.725 0 0 1-1.172-.906 5.922 5.922 0 0 1-.907-1.17 5.725 5.725 0 0 1-.793-2.927Zm2.484 0c0 .47.082.917.247 1.338a3.275 3.275 0 0 0 1.731 1.841 3.15 3.15 0 0 0 1.317.274c.464 0 .894-.091 1.29-.274a3.2 3.2 0 0 0 1.026-.742c.288-.312.513-.678.674-1.1.162-.42.243-.866.243-1.337 0-.465-.081-.91-.243-1.334a3.546 3.546 0 0 0-.674-1.117 3.276 3.276 0 0 0-1.026-.768 2.93 2.93 0 0 0-1.29-.287c-.476 0-.915.096-1.317.287a3.35 3.35 0 0 0-1.044.768 3.653 3.653 0 0 0-.934 2.45Zm21.647-6.57c.07.04.13.09.176.15a.33.33 0 0 1 .07.212.456.456 0 0 1-.052.203l-.855 1.457c-.1.135-.205.203-.317.203a.42.42 0 0 1-.123-.022.61.61 0 0 1-.141-.066 4.672 4.672 0 0 0-1.19-.618 4.07 4.07 0 0 0-1.347-.221c-.599 0-1.148.113-1.647.34-.5.226-.931.534-1.295.923a4.188 4.188 0 0 0-.85 1.368 4.636 4.636 0 0 0-.304 1.687c0 .595.101 1.152.304 1.674.202.52.486.975.85 1.364a3.99 3.99 0 0 0 1.295.918 3.98 3.98 0 0 0 1.647.336c.476 0 .93-.074 1.361-.22.432-.148.83-.354 1.194-.619a.393.393 0 0 1 .145-.07c.05-.012.093-.021.128-.027.1 0 .202.065.308.194l.872 1.475a.44.44 0 0 1 .053.194c0 .083-.025.15-.075.203-.05.053-.107.103-.172.15a6.986 6.986 0 0 1-1.784.861 6.589 6.589 0 0 1-2.012.305 6.67 6.67 0 0 1-4.762-1.974 6.842 6.842 0 0 1-1.052-1.36 6.602 6.602 0 0 1-.679-1.607 6.717 6.717 0 0 1-.238-1.797 6.717 6.717 0 0 1 .917-3.413 6.841 6.841 0 0 1 1.052-1.373A6.567 6.567 0 0 1 38.51 3.26a6.895 6.895 0 0 1 1.608-.68 6.557 6.557 0 0 1 1.793-.242 6.61 6.61 0 0 1 3.761 1.148Zm12.994 11.639a.47.47 0 0 1-.066.26.468.468 0 0 1-.172.16.755.755 0 0 1-.242.079 1.796 1.796 0 0 1-.287.022h-1.101c-.188 0-.319-.05-.392-.15a1.023 1.023 0 0 1-.163-.38l-.053-.75a5.477 5.477 0 0 1-.682.578c-.25.18-.519.335-.806.468a4.666 4.666 0 0 1-.917.309c-.323.073-.654.11-.995.11a5.6 5.6 0 0 1-1.529-.207 5.899 5.899 0 0 1-1.378-.583 5.616 5.616 0 0 1-1.167-.905 5.814 5.814 0 0 1-1.48-2.561 5.723 5.723 0 0 1-.207-1.546c0-.535.069-1.05.207-1.545.138-.495.331-.957.581-1.387a5.708 5.708 0 0 1 2.066-2.07 5.9 5.9 0 0 1 1.379-.583c.49-.139 1-.208 1.528-.208.376 0 .734.04 1.075.12.34.079.659.19.955.335.297.144.572.318.824.521.253.203.482.425.687.667l.123-.945c.03-.106.058-.193.084-.26a.51.51 0 0 1 .097-.164.288.288 0 0 1 .145-.084.924.924 0 0 1 .22-.022h.882c.093 0 .188.009.281.027.094.017.18.045.256.083a.452.452 0 0 1 .18.16.453.453 0 0 1 .067.251v10.2Zm-9.162-5.096c0 .471.082.917.247 1.338.164.421.393.79.687 1.108.294.318.639.57 1.035.755.396.186.83.279 1.3.279.475 0 .92-.093 1.334-.279a3.416 3.416 0 0 0 1.079-.755c.305-.317.546-.687.722-1.108a3.43 3.43 0 0 0 .265-1.338c0-.465-.088-.908-.265-1.329a3.577 3.577 0 0 0-.722-1.108 3.478 3.478 0 0 0-1.08-.76 3.184 3.184 0 0 0-1.334-.282c-.47 0-.903.094-1.3.283a3.355 3.355 0 0 0-1.034.759A3.485 3.485 0 0 0 49.75 8.7a3.62 3.62 0 0 0-.247 1.33Zm13.223 5.087a1.43 1.43 0 0 1-.172.397c-.062.089-.18.133-.357.133h-1.33c-.37 0-.555-.177-.555-.53V1.63a.5.5 0 0 1 .159-.38c.105-.1.226-.15.36-.15h1.454a.55.55 0 0 1 .414.155c.1.103.15.228.15.375v4.054a4.972 4.972 0 0 1 1.458-1.042c.549-.26 1.179-.39 1.89-.39.792 0 1.53.153 2.215.456a5.655 5.655 0 0 1 2.982 3.082c.287.703.431 1.458.431 2.265 0 .8-.144 1.553-.431 2.256a5.735 5.735 0 0 1-1.194 1.841 5.656 5.656 0 0 1-1.788 1.241 5.406 5.406 0 0 1-2.216.455 4.23 4.23 0 0 1-.995-.115 4.925 4.925 0 0 1-.907-.313 4.67 4.67 0 0 1-.806-.473 5.774 5.774 0 0 1-.683-.583l-.08.75Zm6.624-5.06a3.653 3.653 0 0 0-.934-2.45 3.365 3.365 0 0 0-1.04-.769c-.398-.191-.83-.287-1.294-.287-.47 0-.912.096-1.326.287a3.557 3.557 0 0 0-1.81 1.885 3.442 3.442 0 0 0-.264 1.334v.062c.005.465.1.902.282 1.311.181.41.425.768.73 1.077.306.31.663.554 1.07.733.41.18.848.27 1.318.27.464 0 .896-.091 1.295-.274a3.289 3.289 0 0 0 1.726-1.841c.165-.421.247-.867.247-1.338Zm3.823-5.087a.57.57 0 0 1 .132-.384c.088-.103.218-.154.388-.154h1.462a.555.555 0 0 1 .379.155c.053.05.097.107.132.171a.436.436 0 0 1 .053.212v10.147c0 .353-.185.53-.555.53h-1.462c-.353 0-.529-.177-.529-.53V4.969Zm0-3.903c0-.353.174-.53.52-.53h1.48c.164 0 .296.044.396.133.1.088.15.22.15.397v1.316a.615.615 0 0 1-.14.384.473.473 0 0 1-.397.181h-1.48c-.353 0-.529-.188-.529-.565V1.066Zm4.757 3.886c0-.083.035-.171.106-.265a.487.487 0 0 1 .203-.177c.046-.047.117-.072.21-.075.095-.003.183-.004.265-.004h.89c.17 0 .296.055.379.167a.964.964 0 0 1 .167.371l.097.936c.135-.2.3-.397.498-.591.196-.195.43-.368.7-.521.27-.153.579-.277.925-.371a4.47 4.47 0 0 1 1.172-.142c.693 0 1.31.126 1.85.376s.995.593 1.365 1.029c.37.435.65.947.841 1.536.191.589.287 1.222.287 1.899v5.89c0 .212-.05.37-.15.477-.1.106-.244.159-.432.159h-1.339c-.235 0-.392-.044-.471-.133-.08-.088-.12-.244-.12-.468V9.164a2.71 2.71 0 0 0-.158-.914 2.496 2.496 0 0 0-.462-.8A2.239 2.239 0 0 0 84 6.887a2.41 2.41 0 0 0-1.04-.212c-.27 0-.55.054-.841.163-.29.109-.557.263-.797.464-.241.2-.44.443-.6.728-.158.286-.24.608-.246.967v5.723c0 .111-.006.223-.018.335a1.024 1.024 0 0 1-.075.3.514.514 0 0 1-.162.212.442.442 0 0 1-.274.08h-1.453c-.194 0-.336-.046-.427-.137-.091-.091-.137-.222-.137-.393V4.952Zm12.51 7.532c.123.195.278.362.466.504.188.141.38.257.577.348.197.092.385.158.564.2.179.04.321.061.427.061.164 0 .358-.018.581-.053a2.37 2.37 0 0 0 .63-.19 1.51 1.51 0 0 0 .502-.37.866.866 0 0 0 .207-.597c0-.235-.054-.427-.163-.574a1.268 1.268 0 0 0-.44-.366 3.132 3.132 0 0 0-.634-.243 48.488 48.488 0 0 1-.753-.212 7.402 7.402 0 0 1-1.577-.596 4.055 4.055 0 0 1-1.07-.8c-.28-.3-.484-.63-.613-.988-.129-.36-.194-.751-.194-1.175a3 3 0 0 1 .282-1.307 2.96 2.96 0 0 1 .793-1.015c.34-.283.75-.502 1.229-.658a5.11 5.11 0 0 1 1.59-.234c.411 0 .778.036 1.101.11a3.598 3.598 0 0 1 1.678.888c.244.223.492.485.745.785a.49.49 0 0 1 .132.31c0 .106-.059.206-.176.3-.088.07-.193.159-.313.265-.12.106-.24.209-.357.309-.117.1-.229.185-.335.256a.513.513 0 0 1-.264.106c-.13 0-.255-.077-.379-.23a3.91 3.91 0 0 0-.387-.402 1.929 1.929 0 0 0-.863-.45 2.369 2.369 0 0 0-.538-.057c-.159 0-.324.023-.498.07a1.654 1.654 0 0 0-.475.212 1.376 1.376 0 0 0-.362.34.737.737 0 0 0-.145.446c0 .189.06.349.18.482.121.132.274.247.459.344.185.097.386.178.603.243.218.065.42.123.608.176.54.153 1.037.33 1.489.53.452.2.841.443 1.167.729.326.285.58.62.762 1.007.182.385.273.837.273 1.355 0 .548-.108 1.038-.326 1.47a3.2 3.2 0 0 1-.903 1.1c-.384.3-.84.53-1.365.689a5.893 5.893 0 0 1-2.841.119 4.776 4.776 0 0 1-1.097-.371 4.214 4.214 0 0 1-.969-.645 3.501 3.501 0 0 1-.744-.931.794.794 0 0 1-.132-.398c0-.076.019-.143.057-.198a.79.79 0 0 1 .154-.164l.987-.76a.472.472 0 0 1 .237-.079c.083 0 .156.028.22.084.065.056.136.131.212.225Z" fill="#fff"/></symbol></svg>